<svg xmlns="http://www.w3.org/2000/svg" xmlns:xlink="http://www.w3.org/1999/xlink" width="176" height="136" viewBox="0 0 176 136">
  <defs>
    <style>
      .\33 1aead47-a170-4eb8-9d04-8d7d2c93c269 {
        fill: #36495e;
      }

      .d955b30a-803f-4936-a5f6-cc077dff1846 {
        clip-path: url(#f1ba2635-6816-4e58-b561-83470bbed712);
      }

      .\31 643c31a-6bf6-45ff-82e0-8f541b9bf382 {
        clip-path: url(#8b0672c1-01a0-4f79-819b-95745e8de9e0);
      }
    </style>
    <clipPath id="f1ba2635-6816-4e58-b561-83470bbed712">
      <path class="31aead47-a170-4eb8-9d04-8d7d2c93c269" d="M123.55,60h-23.1c-8.61,0-16,6.62-16.43,15.23A16,16,0,0,0,99,92a1,1,0,0,0,1-1v-6a1,1,0,0,0-.87-1A8,8,0,0,1,92,75.47,8.18,8.18,0,0,1,100.27,68h23.46A8.18,8.18,0,0,1,132,75.47,8,8,0,0,1,124.87,84a1,1,0,0,0-.87,1v6a1,1,0,0,0,1,1A16,16,0,0,0,140,75.23C139.58,66.62,132.16,60,123.55,60Z"/>
    </clipPath>
    <clipPath id="8b0672c1-01a0-4f79-819b-95745e8de9e0">
      <path class="31aead47-a170-4eb8-9d04-8d7d2c93c269" d="M108,92.53A8.18,8.18,0,0,1,99.73,100H76.27A8.18,8.18,0,0,1,68,92.53a8,8,0,0,1,7.11-8.48,1,1,0,0,0,.87-1V77a1,1,0,0,0-1-1A16,16,0,0,0,60,92.77c.4,8.61,7.82,15.23,16.43,15.23h23.1c8.61,0,16-6.62,16.43-15.23A16,16,0,0,0,101,76a1,1,0,0,0-1,1v6a1,1,0,0,0,.87,1A8,8,0,0,1,108,92.53Z"/>
    </clipPath>
  </defs>
  <title>folder-link-blue</title>
  <g id="d7f89a6b-ccc0-4fba-b2ee-7d513c751c8b" data-name="Layer 2">
    <g id="e48e3b97-7c6f-4364-acc9-daf9967133cc" data-name="Layer 2">
      <g>
        <path class="31aead47-a170-4eb8-9d04-8d7d2c93c269" d="M160,136H16A16,16,0,0,1,0,120V4A4,4,0,0,1,4,0H60a4,4,0,0,1,4,4V15a1,1,0,0,0,1,1h83a4,4,0,0,1,4,4V31a1,1,0,0,0,1,1h19a4,4,0,0,1,4,4v84A16,16,0,0,1,160,136ZM29.85,128H160a8,8,0,0,0,8-8V41a1,1,0,0,0-1-1H33a1,1,0,0,0-1,1v79A15.85,15.85,0,0,1,29.85,128ZM8,9V119.72A8.18,8.18,0,0,0,15.45,128,8,8,0,0,0,24,120V36a4,4,0,0,1,4-4H143a1,1,0,0,0,1-1V25a1,1,0,0,0-1-1H60a4,4,0,0,1-4-4V9a1,1,0,0,0-1-1H9A1,1,0,0,0,8,9Z"/>
        <g>
          <g>
            <path class="31aead47-a170-4eb8-9d04-8d7d2c93c269" d="M123.55,60h-23.1c-8.61,0-16,6.62-16.43,15.23A16,16,0,0,0,99,92a1,1,0,0,0,1-1v-6a1,1,0,0,0-.87-1A8,8,0,0,1,92,75.47,8.18,8.18,0,0,1,100.27,68h23.46A8.18,8.18,0,0,1,132,75.47,8,8,0,0,1,124.87,84a1,1,0,0,0-.87,1v6a1,1,0,0,0,1,1A16,16,0,0,0,140,75.23C139.58,66.62,132.16,60,123.55,60Z"/>
            <g class="d955b30a-803f-4936-a5f6-cc077dff1846">
              <polygon class="31aead47-a170-4eb8-9d04-8d7d2c93c269" points="84 68.78 107.22 92 84 92 84 68.78"/>
              <polygon class="31aead47-a170-4eb8-9d04-8d7d2c93c269" points="84 67.97 108.03 92 107.22 92 84 68.78 84 67.97"/>
              <polygon class="31aead47-a170-4eb8-9d04-8d7d2c93c269" points="84 67.17 108.83 92 108.03 92 84 67.97 84 67.17"/>
              <polygon class="31aead47-a170-4eb8-9d04-8d7d2c93c269" points="84 66.37 109.63 92 108.83 92 84 67.17 84 66.37"/>
              <polygon class="31aead47-a170-4eb8-9d04-8d7d2c93c269" points="84 65.56 110.44 92 109.63 92 84 66.37 84 65.56"/>
              <polygon class="31aead47-a170-4eb8-9d04-8d7d2c93c269" points="84 64.76 111.24 92 110.44 92 84 65.56 84 64.76"/>
              <polygon class="31aead47-a170-4eb8-9d04-8d7d2c93c269" points="84 64.33 84.19 64.15 112.04 92 111.24 92 84 64.76 84 64.33"/>
              <polygon class="31aead47-a170-4eb8-9d04-8d7d2c93c269" points="84.19 64.15 84.59 63.74 112.84 92 112.04 92 84.19 64.15"/>
              <polygon class="31aead47-a170-4eb8-9d04-8d7d2c93c269" points="84.59 63.74 84.99 63.34 113.65 92 112.84 92 84.59 63.74"/>
              <polygon class="31aead47-a170-4eb8-9d04-8d7d2c93c269" points="84.99 63.34 85.39 62.94 114.45 92 113.65 92 84.99 63.34"/>
              <polygon class="31aead47-a170-4eb8-9d04-8d7d2c93c269" points="85.39 62.94 85.79 62.54 115.25 92 114.45 92 85.39 62.94"/>
              <polygon class="31aead47-a170-4eb8-9d04-8d7d2c93c269" points="85.79 62.54 86.2 62.14 116.06 92 115.25 92 85.79 62.54"/>
              <polygon class="31aead47-a170-4eb8-9d04-8d7d2c93c269" points="86.2 62.14 86.6 61.74 116.86 92 116.06 92 86.2 62.14"/>
              <polygon class="31aead47-a170-4eb8-9d04-8d7d2c93c269" points="86.6 61.74 87 61.34 117.66 92 116.86 92 86.6 61.74"/>
              <polygon class="31aead47-a170-4eb8-9d04-8d7d2c93c269" points="87 61.34 87.4 60.94 118.47 92 117.66 92 87 61.34"/>
              <polygon class="31aead47-a170-4eb8-9d04-8d7d2c93c269" points="87.4 60.94 87.8 60.53 119.27 92 118.47 92 87.4 60.94"/>
              <polygon class="31aead47-a170-4eb8-9d04-8d7d2c93c269" points="87.8 60.53 88.2 60.13 120.07 92 119.27 92 87.8 60.53"/>
              <polygon class="31aead47-a170-4eb8-9d04-8d7d2c93c269" points="88.2 60.13 88.33 60 88.87 60 120.87 92 120.07 92 88.2 60.13"/>
              <polygon class="31aead47-a170-4eb8-9d04-8d7d2c93c269" points="89.68 60 121.68 92 120.87 92 88.87 60 89.68 60"/>
              <polygon class="31aead47-a170-4eb8-9d04-8d7d2c93c269" points="90.48 60 122.48 92 121.68 92 89.68 60 90.48 60"/>
              <polygon class="31aead47-a170-4eb8-9d04-8d7d2c93c269" points="91.28 60 123.28 92 122.48 92 90.48 60 91.28 60"/>
              <polygon class="31aead47-a170-4eb8-9d04-8d7d2c93c269" points="92.09 60 124.09 92 123.28 92 91.28 60 92.09 60"/>
              <polygon class="31aead47-a170-4eb8-9d04-8d7d2c93c269" points="92.89 60 124.89 92 124.09 92 92.09 60 92.89 60"/>
              <polygon class="31aead47-a170-4eb8-9d04-8d7d2c93c269" points="93.69 60 125.69 92 124.89 92 92.89 60 93.69 60"/>
              <polygon class="31aead47-a170-4eb8-9d04-8d7d2c93c269" points="94.49 60 126.49 92 125.69 92 93.69 60 94.49 60"/>
              <polygon class="31aead47-a170-4eb8-9d04-8d7d2c93c269" points="95.3 60 127.3 92 126.49 92 94.49 60 95.3 60"/>
              <polygon class="31aead47-a170-4eb8-9d04-8d7d2c93c269" points="96.1 60 128.1 92 127.3 92 95.3 60 96.1 60"/>
              <polygon class="31aead47-a170-4eb8-9d04-8d7d2c93c269" points="96.9 60 128.9 92 128.1 92 96.1 60 96.9 60"/>
              <polygon class="31aead47-a170-4eb8-9d04-8d7d2c93c269" points="97.71 60 129.71 92 128.9 92 96.9 60 97.71 60"/>
              <polygon class="31aead47-a170-4eb8-9d04-8d7d2c93c269" points="98.51 60 130.51 92 129.71 92 97.71 60 98.51 60"/>
              <polygon class="31aead47-a170-4eb8-9d04-8d7d2c93c269" points="99.31 60 131.31 92 130.51 92 98.51 60 99.31 60"/>
              <polygon class="31aead47-a170-4eb8-9d04-8d7d2c93c269" points="100.11 60 132.12 92 131.31 92 99.31 60 100.11 60"/>
              <polygon class="31aead47-a170-4eb8-9d04-8d7d2c93c269" points="100.92 60 132.92 92 132.12 92 100.11 60 100.92 60"/>
              <polygon class="31aead47-a170-4eb8-9d04-8d7d2c93c269" points="101.72 60 133.72 92 132.92 92 100.92 60 101.72 60"/>
              <polygon class="31aead47-a170-4eb8-9d04-8d7d2c93c269" points="102.52 60 134.52 92 133.72 92 101.72 60 102.52 60"/>
              <polygon class="31aead47-a170-4eb8-9d04-8d7d2c93c269" points="103.33 60 135.33 92 134.52 92 102.52 60 103.33 60"/>
              <polygon class="31aead47-a170-4eb8-9d04-8d7d2c93c269" points="104.13 60 135.9 91.77 135.66 92 135.33 92 103.33 60 104.13 60"/>
              <polygon class="31aead47-a170-4eb8-9d04-8d7d2c93c269" points="104.93 60 136.3 91.37 135.9 91.77 104.13 60 104.93 60"/>
              <polygon class="31aead47-a170-4eb8-9d04-8d7d2c93c269" points="105.74 60 136.7 90.97 136.3 91.37 104.93 60 105.74 60"/>
              <polygon class="31aead47-a170-4eb8-9d04-8d7d2c93c269" points="106.54 60 137.1 90.56 136.7 90.97 105.74 60 106.54 60"/>
              <polygon class="31aead47-a170-4eb8-9d04-8d7d2c93c269" points="107.34 60 137.5 90.16 137.1 90.56 106.54 60 107.34 60"/>
              <polygon class="31aead47-a170-4eb8-9d04-8d7d2c93c269" points="108.14 60 137.91 89.76 137.5 90.16 107.34 60 108.14 60"/>
              <polygon class="31aead47-a170-4eb8-9d04-8d7d2c93c269" points="108.95 60 138.31 89.36 137.91 89.76 108.14 60 108.95 60"/>
              <polygon class="31aead47-a170-4eb8-9d04-8d7d2c93c269" points="109.75 60 138.71 88.96 138.31 89.36 108.95 60 109.75 60"/>
              <polygon class="31aead47-a170-4eb8-9d04-8d7d2c93c269" points="110.55 60 139.11 88.56 138.71 88.96 109.75 60 110.55 60"/>
              <polygon class="31aead47-a170-4eb8-9d04-8d7d2c93c269" points="111.36 60 139.51 88.15 139.11 88.56 110.55 60 111.36 60"/>
              <polygon class="31aead47-a170-4eb8-9d04-8d7d2c93c269" points="112.16 60 139.91 87.75 139.51 88.15 111.36 60 112.16 60"/>
              <polygon class="31aead47-a170-4eb8-9d04-8d7d2c93c269" points="112.96 60 140 87.04 140 87.67 139.91 87.75 112.16 60 112.96 60"/>
              <polygon class="31aead47-a170-4eb8-9d04-8d7d2c93c269" points="113.77 60 140 86.23 140 87.04 112.96 60 113.77 60"/>
              <polygon class="31aead47-a170-4eb8-9d04-8d7d2c93c269" points="114.57 60 140 85.43 140 86.23 113.77 60 114.57 60"/>
              <polygon class="31aead47-a170-4eb8-9d04-8d7d2c93c269" points="115.37 60 140 84.63 140 85.43 114.57 60 115.37 60"/>
              <polygon class="31aead47-a170-4eb8-9d04-8d7d2c93c269" points="116.17 60 140 83.83 140 84.63 115.37 60 116.17 60"/>
              <polygon class="31aead47-a170-4eb8-9d04-8d7d2c93c269" points="116.98 60 140 83.02 140 83.83 116.17 60 116.98 60"/>
              <polygon class="31aead47-a170-4eb8-9d04-8d7d2c93c269" points="117.78 60 140 82.22 140 83.02 116.98 60 117.78 60"/>
              <polygon class="31aead47-a170-4eb8-9d04-8d7d2c93c269" points="118.58 60 140 81.42 140 82.22 117.78 60 118.58 60"/>
              <polygon class="31aead47-a170-4eb8-9d04-8d7d2c93c269" points="119.39 60 140 80.61 140 81.42 118.58 60 119.39 60"/>
              <polygon class="31aead47-a170-4eb8-9d04-8d7d2c93c269" points="120.19 60 140 79.81 140 80.61 119.39 60 120.19 60"/>
              <polygon class="31aead47-a170-4eb8-9d04-8d7d2c93c269" points="120.99 60 140 79.01 140 79.81 120.19 60 120.99 60"/>
              <polygon class="31aead47-a170-4eb8-9d04-8d7d2c93c269" points="121.8 60 140 78.2 140 79.01 120.99 60 121.8 60"/>
              <polygon class="31aead47-a170-4eb8-9d04-8d7d2c93c269" points="122.6 60 140 77.4 140 78.2 121.8 60 122.6 60"/>
              <polygon class="31aead47-a170-4eb8-9d04-8d7d2c93c269" points="123.4 60 140 76.6 140 77.4 122.6 60 123.4 60"/>
              <polygon class="31aead47-a170-4eb8-9d04-8d7d2c93c269" points="124.2 60 140 75.8 140 76.6 123.4 60 124.2 60"/>
              <polygon class="31aead47-a170-4eb8-9d04-8d7d2c93c269" points="125.01 60 140 74.99 140 75.8 124.2 60 125.01 60"/>
              <polygon class="31aead47-a170-4eb8-9d04-8d7d2c93c269" points="125.81 60 140 74.19 140 74.99 125.01 60 125.81 60"/>
              <polygon class="31aead47-a170-4eb8-9d04-8d7d2c93c269" points="126.61 60 140 73.39 140 74.19 125.81 60 126.61 60"/>
              <polygon class="31aead47-a170-4eb8-9d04-8d7d2c93c269" points="127.42 60 140 72.58 140 73.39 126.61 60 127.42 60"/>
              <polygon class="31aead47-a170-4eb8-9d04-8d7d2c93c269" points="128.22 60 140 71.78 140 72.58 127.42 60 128.22 60"/>
              <polygon class="31aead47-a170-4eb8-9d04-8d7d2c93c269" points="129.02 60 140 70.98 140 71.78 128.22 60 129.02 60"/>
              <polygon class="31aead47-a170-4eb8-9d04-8d7d2c93c269" points="129.82 60 140 70.18 140 70.98 129.02 60 129.82 60"/>
              <polygon class="31aead47-a170-4eb8-9d04-8d7d2c93c269" points="130.63 60 140 69.37 140 70.18 129.82 60 130.63 60"/>
              <polygon class="31aead47-a170-4eb8-9d04-8d7d2c93c269" points="140 69.37 130.63 60 140 60 140 69.37"/>
            </g>
          </g>
          <g>
            <path class="31aead47-a170-4eb8-9d04-8d7d2c93c269" d="M108,92.53A8.18,8.18,0,0,1,99.73,100H76.27A8.18,8.18,0,0,1,68,92.53a8,8,0,0,1,7.11-8.48,1,1,0,0,0,.87-1V77a1,1,0,0,0-1-1A16,16,0,0,0,60,92.77c.4,8.61,7.82,15.23,16.43,15.23h23.1c8.61,0,16-6.62,16.43-15.23A16,16,0,0,0,101,76a1,1,0,0,0-1,1v6a1,1,0,0,0,.87,1A8,8,0,0,1,108,92.53Z"/>
            <g class="1643c31a-6bf6-45ff-82e0-8f541b9bf382">
              <polygon class="31aead47-a170-4eb8-9d04-8d7d2c93c269" points="60 84.78 83.22 108 60 108 60 84.78"/>
              <polygon class="31aead47-a170-4eb8-9d04-8d7d2c93c269" points="60 83.97 84.03 108 83.22 108 60 84.78 60 83.97"/>
              <polygon class="31aead47-a170-4eb8-9d04-8d7d2c93c269" points="60 83.17 84.83 108 84.03 108 60 83.97 60 83.17"/>
              <polygon class="31aead47-a170-4eb8-9d04-8d7d2c93c269" points="60 82.37 85.63 108 84.83 108 60 83.17 60 82.37"/>
              <polygon class="31aead47-a170-4eb8-9d04-8d7d2c93c269" points="60 81.56 86.44 108 85.63 108 60 82.37 60 81.56"/>
              <polygon class="31aead47-a170-4eb8-9d04-8d7d2c93c269" points="60 80.76 87.24 108 86.44 108 60 81.56 60 80.76"/>
              <polygon class="31aead47-a170-4eb8-9d04-8d7d2c93c269" points="60 80.33 60.19 80.15 88.04 108 87.24 108 60 80.76 60 80.33"/>
              <polygon class="31aead47-a170-4eb8-9d04-8d7d2c93c269" points="60.19 80.15 60.59 79.75 88.84 108 88.04 108 60.19 80.15"/>
              <polygon class="31aead47-a170-4eb8-9d04-8d7d2c93c269" points="60.59 79.75 60.99 79.34 89.65 108 88.84 108 60.59 79.75"/>
              <polygon class="31aead47-a170-4eb8-9d04-8d7d2c93c269" points="60.99 79.34 61.39 78.94 90.45 108 89.65 108 60.99 79.34"/>
              <polygon class="31aead47-a170-4eb8-9d04-8d7d2c93c269" points="61.39 78.94 61.79 78.54 91.25 108 90.45 108 61.39 78.94"/>
              <polygon class="31aead47-a170-4eb8-9d04-8d7d2c93c269" points="61.79 78.54 62.2 78.14 92.06 108 91.25 108 61.79 78.54"/>
              <polygon class="31aead47-a170-4eb8-9d04-8d7d2c93c269" points="62.2 78.14 62.6 77.74 92.86 108 92.06 108 62.2 78.14"/>
              <polygon class="31aead47-a170-4eb8-9d04-8d7d2c93c269" points="62.6 77.74 63 77.34 93.66 108 92.86 108 62.6 77.74"/>
              <polygon class="31aead47-a170-4eb8-9d04-8d7d2c93c269" points="63 77.34 63.4 76.94 94.47 108 93.66 108 63 77.34"/>
              <polygon class="31aead47-a170-4eb8-9d04-8d7d2c93c269" points="63.4 76.94 63.8 76.53 95.27 108 94.47 108 63.4 76.94"/>
              <polygon class="31aead47-a170-4eb8-9d04-8d7d2c93c269" points="63.8 76.53 64.2 76.13 96.07 108 95.27 108 63.8 76.53"/>
              <polygon class="31aead47-a170-4eb8-9d04-8d7d2c93c269" points="64.2 76.13 64.33 76 64.87 76 96.87 108 96.07 108 64.2 76.13"/>
              <polygon class="31aead47-a170-4eb8-9d04-8d7d2c93c269" points="65.68 76 97.68 108 96.87 108 64.87 76 65.68 76"/>
              <polygon class="31aead47-a170-4eb8-9d04-8d7d2c93c269" points="66.48 76 98.48 108 97.68 108 65.68 76 66.48 76"/>
              <polygon class="31aead47-a170-4eb8-9d04-8d7d2c93c269" points="67.28 76 99.28 108 98.48 108 66.48 76 67.28 76"/>
              <polygon class="31aead47-a170-4eb8-9d04-8d7d2c93c269" points="68.09 76 100.09 108 99.28 108 67.28 76 68.09 76"/>
              <polygon class="31aead47-a170-4eb8-9d04-8d7d2c93c269" points="68.89 76 100.89 108 100.09 108 68.09 76 68.89 76"/>
              <polygon class="31aead47-a170-4eb8-9d04-8d7d2c93c269" points="69.69 76 101.69 108 100.89 108 68.89 76 69.69 76"/>
              <polygon class="31aead47-a170-4eb8-9d04-8d7d2c93c269" points="70.49 76 102.49 108 101.69 108 69.69 76 70.49 76"/>
              <polygon class="31aead47-a170-4eb8-9d04-8d7d2c93c269" points="71.3 76 103.3 108 102.49 108 70.49 76 71.3 76"/>
              <polygon class="31aead47-a170-4eb8-9d04-8d7d2c93c269" points="72.1 76 104.1 108 103.3 108 71.3 76 72.1 76"/>
              <polygon class="31aead47-a170-4eb8-9d04-8d7d2c93c269" points="72.9 76 104.9 108 104.1 108 72.1 76 72.9 76"/>
              <polygon class="31aead47-a170-4eb8-9d04-8d7d2c93c269" points="73.71 76 105.71 108 104.9 108 72.9 76 73.71 76"/>
              <polygon class="31aead47-a170-4eb8-9d04-8d7d2c93c269" points="74.51 76 106.51 108 105.71 108 73.71 76 74.51 76"/>
              <polygon class="31aead47-a170-4eb8-9d04-8d7d2c93c269" points="75.31 76 107.31 108 106.51 108 74.51 76 75.31 76"/>
              <polygon class="31aead47-a170-4eb8-9d04-8d7d2c93c269" points="76.11 76 108.11 108 107.31 108 75.31 76 76.11 76"/>
              <polygon class="31aead47-a170-4eb8-9d04-8d7d2c93c269" points="76.92 76 108.92 108 108.11 108 76.11 76 76.92 76"/>
              <polygon class="31aead47-a170-4eb8-9d04-8d7d2c93c269" points="77.72 76 109.72 108 108.92 108 76.92 76 77.72 76"/>
              <polygon class="31aead47-a170-4eb8-9d04-8d7d2c93c269" points="78.52 76 110.52 108 109.72 108 77.72 76 78.52 76"/>
              <polygon class="31aead47-a170-4eb8-9d04-8d7d2c93c269" points="79.33 76 111.33 108 110.52 108 78.52 76 79.33 76"/>
              <polygon class="31aead47-a170-4eb8-9d04-8d7d2c93c269" points="80.13 76 111.9 107.77 111.67 108 111.33 108 79.33 76 80.13 76"/>
              <polygon class="31aead47-a170-4eb8-9d04-8d7d2c93c269" points="80.93 76 112.3 107.37 111.9 107.77 80.13 76 80.93 76"/>
              <polygon class="31aead47-a170-4eb8-9d04-8d7d2c93c269" points="81.74 76 112.7 106.97 112.3 107.37 80.93 76 81.74 76"/>
              <polygon class="31aead47-a170-4eb8-9d04-8d7d2c93c269" points="82.54 76 113.1 106.56 112.7 106.97 81.74 76 82.54 76"/>
              <polygon class="31aead47-a170-4eb8-9d04-8d7d2c93c269" points="83.34 76 113.5 106.16 113.1 106.56 82.54 76 83.34 76"/>
              <polygon class="31aead47-a170-4eb8-9d04-8d7d2c93c269" points="84.14 76 113.91 105.76 113.5 106.16 83.34 76 84.14 76"/>
              <polygon class="31aead47-a170-4eb8-9d04-8d7d2c93c269" points="84.95 76 114.31 105.36 113.91 105.76 84.14 76 84.95 76"/>
              <polygon class="31aead47-a170-4eb8-9d04-8d7d2c93c269" points="85.75 76 114.71 104.96 114.31 105.36 84.95 76 85.75 76"/>
              <polygon class="31aead47-a170-4eb8-9d04-8d7d2c93c269" points="86.55 76 115.11 104.56 114.71 104.96 85.75 76 86.55 76"/>
              <polygon class="31aead47-a170-4eb8-9d04-8d7d2c93c269" points="87.36 76 115.51 104.15 115.11 104.56 86.55 76 87.36 76"/>
              <polygon class="31aead47-a170-4eb8-9d04-8d7d2c93c269" points="88.16 76 115.91 103.75 115.51 104.15 87.36 76 88.16 76"/>
              <polygon class="31aead47-a170-4eb8-9d04-8d7d2c93c269" points="88.96 76 116 103.04 116 103.67 115.91 103.75 88.16 76 88.96 76"/>
              <polygon class="31aead47-a170-4eb8-9d04-8d7d2c93c269" points="89.77 76 116 102.23 116 103.04 88.96 76 89.77 76"/>
              <polygon class="31aead47-a170-4eb8-9d04-8d7d2c93c269" points="90.57 76 116 101.43 116 102.23 89.77 76 90.57 76"/>
              <polygon class="31aead47-a170-4eb8-9d04-8d7d2c93c269" points="91.37 76 116 100.63 116 101.43 90.57 76 91.37 76"/>
              <polygon class="31aead47-a170-4eb8-9d04-8d7d2c93c269" points="92.17 76 116 99.83 116 100.63 91.37 76 92.17 76"/>
              <polygon class="31aead47-a170-4eb8-9d04-8d7d2c93c269" points="92.98 76 116 99.02 116 99.83 92.17 76 92.98 76"/>
              <polygon class="31aead47-a170-4eb8-9d04-8d7d2c93c269" points="93.78 76 116 98.22 116 99.02 92.98 76 93.78 76"/>
              <polygon class="31aead47-a170-4eb8-9d04-8d7d2c93c269" points="94.58 76 116 97.42 116 98.22 93.78 76 94.58 76"/>
              <polygon class="31aead47-a170-4eb8-9d04-8d7d2c93c269" points="95.39 76 116 96.61 116 97.42 94.58 76 95.39 76"/>
              <polygon class="31aead47-a170-4eb8-9d04-8d7d2c93c269" points="96.19 76 116 95.81 116 96.61 95.39 76 96.19 76"/>
              <polygon class="31aead47-a170-4eb8-9d04-8d7d2c93c269" points="96.99 76 116 95.01 116 95.81 96.19 76 96.99 76"/>
              <polygon class="31aead47-a170-4eb8-9d04-8d7d2c93c269" points="97.8 76 116 94.2 116 95.01 96.99 76 97.8 76"/>
              <polygon class="31aead47-a170-4eb8-9d04-8d7d2c93c269" points="98.6 76 116 93.4 116 94.2 97.8 76 98.6 76"/>
              <polygon class="31aead47-a170-4eb8-9d04-8d7d2c93c269" points="99.4 76 116 92.6 116 93.4 98.6 76 99.4 76"/>
              <polygon class="31aead47-a170-4eb8-9d04-8d7d2c93c269" points="100.2 76 116 91.8 116 92.6 99.4 76 100.2 76"/>
              <polygon class="31aead47-a170-4eb8-9d04-8d7d2c93c269" points="101.01 76 116 90.99 116 91.8 100.2 76 101.01 76"/>
              <polygon class="31aead47-a170-4eb8-9d04-8d7d2c93c269" points="101.81 76 116 90.19 116 90.99 101.01 76 101.81 76"/>
              <polygon class="31aead47-a170-4eb8-9d04-8d7d2c93c269" points="102.61 76 116 89.39 116 90.19 101.81 76 102.61 76"/>
              <polygon class="31aead47-a170-4eb8-9d04-8d7d2c93c269" points="103.42 76 116 88.58 116 89.39 102.61 76 103.42 76"/>
              <polygon class="31aead47-a170-4eb8-9d04-8d7d2c93c269" points="104.22 76 116 87.78 116 88.58 103.42 76 104.22 76"/>
              <polygon class="31aead47-a170-4eb8-9d04-8d7d2c93c269" points="105.02 76 116 86.98 116 87.78 104.22 76 105.02 76"/>
              <polygon class="31aead47-a170-4eb8-9d04-8d7d2c93c269" points="105.82 76 116 86.18 116 86.98 105.02 76 105.82 76"/>
              <polygon class="31aead47-a170-4eb8-9d04-8d7d2c93c269" points="106.63 76 116 85.37 116 86.18 105.82 76 106.63 76"/>
              <polygon class="31aead47-a170-4eb8-9d04-8d7d2c93c269" points="116 85.37 106.63 76 116 76 116 85.37"/>
            </g>
          </g>
        </g>
      </g>
    </g>
  </g>
</svg>
